<?xml version="1.0" encoding="utf-8"?>
<!-- Generator: Adobe Illustrator 28.3.0, SVG Export Plug-In . SVG Version: 6.00 Build 0)  -->
<svg version="1.1" id="Calque_1" xmlns="http://www.w3.org/2000/svg" xmlns:xlink="http://www.w3.org/1999/xlink" x="0px" y="0px"
	 viewBox="0 0 478 478" style="enable-background:new 0 0 478 478;" xml:space="preserve">
<style type="text/css">
	.st0{fill:none;}
	.st1{fill:#FD0300;}
	.st2{fill:#FF0428;}
	.st3{fill:#6765FF;}
	.st4{fill:#FFFFFF;}
</style>
<g>
	<polygon class="st0" points="233.5,226.6 233.5,226.6 233.5,226.7 233.4,226.3 	"/>
	<path class="st0" d="M248.9,161.9c-0.2-0.8-0.5-1.5-0.8-2.2c0.1,0.1,0.1,0.2,0.2,0.4C248.5,160.7,248.7,161.3,248.9,161.9z"/>
	<path class="st0" d="M249,183.9c-0.1,0.4-0.2,0.8-0.4,1.1l-14.9,41h0l14.9-41.1C248.8,184.7,248.9,184.3,249,183.9z"/>
	<path class="st1" d="M250.1,166.3c-0.1-0.8-0.3-1.5-0.5-2.2c0,0,0,0,0,0c-0.1-0.4-0.2-0.7-0.3-1.1c0,0,0,0,0,0
		c-0.1-0.4-0.2-0.7-0.3-1.1c-0.2-0.6-0.4-1.2-0.7-1.8c-0.1-0.1-0.1-0.2-0.2-0.4c-0.2-0.5-0.4-1.1-0.7-1.6c0-0.1-0.1-0.1-0.1-0.2
		c-0.1-0.3-0.3-0.6-0.5-0.9c-0.1-0.2-0.2-0.5-0.4-0.7c-0.9-1.6-1.9-3.2-3-4.6c-0.2-0.3-0.4-0.6-0.7-0.8c-0.2-0.3-0.4-0.5-0.7-0.8
		c-0.7-0.8-1.4-1.6-2.2-2.3c-0.3-0.3-0.6-0.5-0.8-0.8c-1.7-1.5-3.6-2.9-5.6-4.1l0,0.1l0-0.1c-1.8-1.1-3.8-2-5.9-2.8
		c-3.9-1.4-8-2.1-12-2.1c-14.4,0-28,8.9-33.2,23.2l-52.8,145.2c-6.6,18.2,2.8,38.5,21,45.1c3.9,1.4,8,2.1,12,2.1
		c14.4,0,28-8.9,33.1-23.1l12.5-34.3c-15.8-3.4-27.8-17.6-27.8-34.4c0-19.4,15.8-35.2,35.2-35.2h17.7v0l0,0l0.1,0.3l0,0l0.1-0.2
		l0.1-0.2l0,0l14.9-41.1c0.1-0.4,0.3-0.7,0.4-1.1c0.4-1.1,0.7-2.2,0.9-3.3C251,175.8,251,171,250.1,166.3z"/>
	<polygon class="st2" points="233.7,226.1 233.7,226.1 233.6,226.3 	"/>
	<path class="st2" d="M339.5,318.1c0,14.4-8.9,28-23.1,33.2c-18.2,6.6-38.5-2.9-45.1-21L259,296.7l33.2-27.8
		c14.9-12.4,16.8-34.7,4.4-49.6c-12.4-14.9-34.7-16.8-49.6-4.4l-13.3,11.2h0l14.9-41c0.5-1.5,1-3,1.3-4.5c1.1-4.8,1.1-9.6,0.1-14.3
		c-0.1-0.7-0.3-1.5-0.5-2.2c-0.1-0.4-0.2-0.7-0.3-1.1v0c-0.1-0.4-0.2-0.7-0.3-1.1c0,0,0,0,0,0c-0.2-0.6-0.4-1.2-0.7-1.8
		c0-0.1-0.1-0.3-0.2-0.4c-0.2-0.5-0.5-1.1-0.7-1.6c0-0.1-0.1-0.1-0.1-0.2c-1.8-3.8-4.3-7.3-7.4-10.3c-0.3-0.3-0.6-0.5-0.8-0.8
		c-1.7-1.5-3.6-2.9-5.6-4.1c0,0,0,0,0,0c1.8-1.1,3.8-2,5.9-2.8c18.2-6.6,38.5,2.9,45.1,21l23.8,65.3l24.6,67.7l4.4,12.1
		C338.8,310.1,339.5,314.1,339.5,318.1z"/>
	<path class="st1" d="M239.9,147.7C240,147.7,240,147.7,239.9,147.7c-0.2-0.2-0.5-0.5-0.8-0.8C239.4,147.2,239.7,147.4,239.9,147.7z
		"/>
	<path class="st1" d="M241,148.8c-0.3-0.4-0.7-0.7-1-1C240.4,148.1,240.7,148.4,241,148.8z"/>
	<path class="st1" d="M242.1,150c-0.4-0.4-0.7-0.8-1.1-1.2C241.4,149.2,241.8,149.6,242.1,150z"/>
	<g>
		<g>
			<path class="st3" d="M233.7,226.1l-0.2,0.2h0l0.1,0.3l0-0.1l0.1-0.2L233.7,226.1L233.7,226.1z"/>
		</g>
	</g>
	<g>
		<path class="st3" d="M292.2,268.9L259,296.7h-43.3c-2.5,0-5-0.3-7.4-0.8c-15.8-3.4-27.8-17.6-27.8-34.4
			c0-19.4,15.8-35.2,35.2-35.2h17.7l0.1,0.3l0-0.1l0.1-0.2l0.1-0.2h0L247,215c14.8-12.4,37.2-10.4,49.6,4.4
			C309,234.2,307.1,256.5,292.2,268.9z"/>
	</g>
</g>
<g>
	<path class="st4" d="M146.6,304.7c-0.1,0-0.1,0-0.2,0l-6-2.2l0.7,2.3c0,0.1,0,0.1,0,0.2c0,0.1-0.1,0.2-0.2,0.2l-0.8,0.3
		c-0.1,0-0.1,0-0.2,0c-0.1,0-0.2-0.1-0.2-0.2l-1.1-3.4c0-0.1,0-0.2,0-0.3l0.4-1c0-0.1,0.1-0.1,0.2-0.2c0.1,0,0.2,0,0.2,0l7.6,2.8
		c0.1,0,0.1,0.1,0.2,0.2c0,0.1,0,0.2,0,0.2l-0.4,1.1C146.7,304.6,146.6,304.7,146.6,304.7z"/>
	<path class="st4" d="M148.4,299.7c-0.1,0-0.1,0-0.2,0c0,0-0.1-0.1-0.1-0.1l-1.7-2.6c0,0.1-0.1,0.3-0.1,0.5
		c-0.2,0.5-0.5,0.9-0.9,1.3c-0.4,0.3-0.9,0.6-1.3,0.7s-1,0.1-1.5-0.1c-0.5-0.2-0.9-0.5-1.2-0.9c-0.3-0.4-0.6-0.9-0.7-1.5
		c-0.1-0.6,0-1.2,0.2-1.9c0.2-0.7,0.6-1.2,1-1.6c0.4-0.4,0.9-0.6,1.4-0.7c0.5-0.1,1,0,1.5,0.1c0.3,0.1,0.6,0.3,0.8,0.5
		c0.2,0.2,0.4,0.4,0.6,0.6c0.2,0.2,0.4,0.5,0.6,0.8l2.1,3.1c0.1,0.1,0.1,0.2,0.1,0.2c0,0.1,0,0.1,0,0.2l-0.4,1.1
		C148.5,299.6,148.5,299.7,148.4,299.7z M145.1,295.4c-0.2-0.4-0.5-0.7-0.9-0.8c-0.5-0.2-0.9-0.2-1.2,0c-0.4,0.2-0.6,0.5-0.8,0.9
		c-0.2,0.4-0.1,0.8,0,1.2c0.2,0.4,0.5,0.7,0.9,0.8c0.4,0.2,0.9,0.2,1.2,0c0.4-0.2,0.6-0.5,0.8-0.9S145.2,295.8,145.1,295.4z"/>
	<path class="st4" d="M150.5,292c-0.8,0.3-1.6,0.3-2.6,0c-0.2-0.1-0.6-0.2-1.1-0.4c-0.5-0.2-0.9-0.3-1.1-0.4
		c-0.9-0.4-1.5-0.9-1.9-1.7c-0.4-0.7-0.4-1.6,0-2.6s0.9-1.7,1.7-2c0.8-0.3,1.6-0.3,2.5,0c0.4,0.1,0.8,0.3,1.1,0.4
		c0.3,0.1,0.6,0.2,1.1,0.4c0.9,0.4,1.6,0.9,2,1.7c0.4,0.7,0.4,1.6,0,2.6S151.2,291.7,150.5,292z M150.7,288.2
		c-0.2-0.4-0.6-0.6-1.2-0.9c-0.2-0.1-0.6-0.2-1-0.4c-0.5-0.2-0.8-0.3-1-0.4c-0.6-0.2-1.1-0.2-1.5-0.1c-0.4,0.1-0.7,0.4-0.9,0.9
		c-0.2,0.5-0.1,0.9,0.1,1.3c0.2,0.4,0.6,0.6,1.2,0.9c0.2,0.1,0.5,0.2,1,0.4c0.5,0.2,0.8,0.3,1,0.4c0.6,0.2,1.1,0.2,1.5,0.1
		c0.4-0.1,0.7-0.4,0.9-0.9C151,289,151,288.6,150.7,288.2z"/>
	<path class="st4" d="M154.2,283.8c-0.1,0-0.1,0-0.2,0c0,0-0.1,0-0.1-0.1l-5.4-5.1l-1.3,3.7c0,0.1-0.1,0.1-0.2,0.2
		c-0.1,0-0.1,0-0.2,0l-0.8-0.3c-0.1,0-0.1-0.1-0.2-0.2s0-0.1,0-0.2l1.9-5.1c0-0.1,0.1-0.1,0.2-0.2c0.1,0,0.2,0,0.2,0l0.7,0.3
		c0.2,0.1,0.3,0.2,0.5,0.3l5.3,5.1c0.1,0.1,0.1,0.2,0.1,0.2c0,0.1,0,0.2,0,0.2l-0.4,1.1C154.3,283.8,154.3,283.8,154.2,283.8z"/>
</g>
</svg>
