<?xml version="1.0" encoding="utf-8"?>
<!-- Generator: Adobe Illustrator 28.2.0, SVG Export Plug-In . SVG Version: 6.00 Build 0)  -->
<svg version="1.1" id="Calque_1" xmlns="http://www.w3.org/2000/svg" xmlns:xlink="http://www.w3.org/1999/xlink" x="0px" y="0px"
	 viewBox="0 0 478 478" style="enable-background:new 0 0 478 478;" xml:space="preserve">
<style type="text/css">
	.st0{fill:#252F32;}
	.st1{fill:#FD0300;}
	.st2{fill:none;}
	.st3{fill:#FF0428;}
	.st4{fill:#6765FF;}
	.st5{fill:#FFFFFF;}
	.st6{font-family:'Rubik-Medium';}
	.st7{font-size:12.4175px;}
</style>
<g>
	<g>
		<g>
			<path class="st0" d="M238.2,161.2c-0.2-0.2-0.2-0.4-0.2-0.6v-25.3c0-0.3,0.1-0.5,0.2-0.7c0.2-0.2,0.4-0.3,0.6-0.3h15.8
				c0.3,0,0.5,0.1,0.7,0.3c0.2,0.2,0.3,0.4,0.3,0.7v1.4c0,0.3-0.1,0.5-0.3,0.6c-0.2,0.2-0.4,0.3-0.7,0.3h-13v9.2h12.2
				c0.3,0,0.5,0.1,0.7,0.3c0.2,0.2,0.3,0.4,0.3,0.6v1.5c0,0.3-0.1,0.5-0.3,0.6c-0.2,0.2-0.4,0.3-0.7,0.3h-12.2v10.6
				c0,0.3-0.1,0.5-0.3,0.6c-0.2,0.2-0.4,0.3-0.7,0.3h-1.8C238.6,161.4,238.4,161.3,238.2,161.2z"/>
			<path class="st0" d="M262.3,159.2c-1.8-1.8-2.8-4.4-2.9-8c0-0.8,0-1.9,0-3.3c0-1.4,0-2.5,0-3.3c0.1-3.5,1.1-6.2,3-8
				c1.9-1.8,4.5-2.7,7.7-2.7c3.2,0,5.8,0.9,7.7,2.7c1.9,1.8,2.9,4.5,3,8c0.1,1.5,0.1,2.6,0.1,3.3c0,0.6,0,1.7-0.1,3.3
				c-0.1,3.6-1.1,6.2-2.9,8s-4.4,2.7-7.8,2.7C266.8,161.8,264.2,160.9,262.3,159.2z M275.1,156.7c1.2-1.3,1.9-3.2,2-5.8
				c0.1-1.6,0.1-2.6,0.1-3.1c0-0.6,0-1.6-0.1-3.1c-0.1-2.6-0.8-4.5-2-5.8s-2.9-1.9-5-1.9c-2.1,0-3.7,0.6-5,1.9s-1.9,3.2-2,5.8
				c0,0.8,0,1.8,0,3.1c0,1.3,0,2.3,0,3.1c0.1,2.6,0.7,4.5,2,5.8c1.2,1.3,2.9,1.9,5,1.9C272.2,158.6,273.9,158,275.1,156.7z"/>
			<path class="st0" d="M293,161.2c-0.2-0.2-0.3-0.4-0.3-0.6v-9.2l-9.4-15.8c-0.1-0.2-0.1-0.3-0.1-0.5c0-0.2,0.1-0.4,0.2-0.5
				s0.3-0.2,0.5-0.2h1.9c0.5,0,0.8,0.2,1,0.7l7.7,12.7l7.6-12.7c0.3-0.4,0.6-0.7,1-0.7h1.9c0.2,0,0.4,0.1,0.6,0.2
				c0.2,0.2,0.3,0.3,0.3,0.5c0,0.1-0.1,0.3-0.2,0.5l-9.4,15.8v9.2c0,0.3-0.1,0.5-0.3,0.6c-0.2,0.2-0.4,0.3-0.7,0.3h-1.9
				C293.4,161.4,293.1,161.3,293,161.2z"/>
			<path class="st0" d="M310.7,161.2c-0.2-0.2-0.2-0.4-0.2-0.6v-25.3c0-0.3,0.1-0.5,0.2-0.7c0.2-0.2,0.4-0.3,0.6-0.3h16
				c0.3,0,0.5,0.1,0.7,0.3c0.2,0.2,0.3,0.4,0.3,0.7v1.4c0,0.3-0.1,0.5-0.3,0.6s-0.4,0.2-0.7,0.2h-13.2v8.7h12.4
				c0.3,0,0.5,0.1,0.7,0.3c0.2,0.2,0.3,0.4,0.3,0.7v1.3c0,0.3-0.1,0.5-0.3,0.6c-0.2,0.2-0.4,0.3-0.7,0.3h-12.4v9h13.5
				c0.3,0,0.5,0.1,0.7,0.3s0.3,0.4,0.3,0.7v1.4c0,0.3-0.1,0.5-0.3,0.6c-0.2,0.2-0.4,0.3-0.7,0.3h-16.3
				C311.1,161.4,310.9,161.3,310.7,161.2z"/>
			<path class="st0" d="M334.2,161.2c-0.2-0.2-0.2-0.4-0.2-0.6v-25.3c0-0.3,0.1-0.5,0.2-0.7c0.2-0.2,0.4-0.3,0.6-0.3h9.5
				c2.9,0,5.3,0.7,6.9,2.1c1.7,1.4,2.5,3.4,2.5,6c0,2-0.5,3.6-1.5,4.9s-2.4,2.1-4.1,2.6l6,10.4c0.1,0.2,0.1,0.3,0.1,0.4
				c0,0.2-0.1,0.4-0.2,0.5s-0.3,0.2-0.5,0.2h-1.7c-0.4,0-0.7-0.1-0.9-0.3s-0.4-0.4-0.6-0.8l-5.7-9.9h-6.9v10.1
				c0,0.3-0.1,0.5-0.3,0.6s-0.4,0.3-0.7,0.3h-1.9C334.6,161.4,334.4,161.3,334.2,161.2z M344.1,147.3c3.9,0,5.9-1.6,5.9-4.9
				s-2-4.9-5.9-4.9h-6.5v9.9H344.1z"/>
			<path class="st1" d="M244.1,196.3c-0.2-0.2-0.2-0.3-0.2-0.5l0.1-0.4l9.6-25.1c0.2-0.6,0.6-0.9,1.2-0.9h2.5c0.6,0,1,0.3,1.2,0.9
				l9.6,25.1l0.1,0.4c0,0.2-0.1,0.4-0.3,0.5c-0.2,0.2-0.4,0.2-0.6,0.2h-1.8c-0.3,0-0.5-0.1-0.6-0.2c-0.2-0.1-0.3-0.3-0.3-0.4
				l-2.2-5.6h-12.8l-2.1,5.6c-0.2,0.4-0.5,0.7-1,0.7h-1.9C244.4,196.5,244.2,196.4,244.1,196.3z M250.7,187h10.6l-5.3-13.9
				L250.7,187z"/>
			<path class="st1" d="M272.7,196.2c-0.2-0.2-0.2-0.4-0.2-0.6v-25.3c0-0.3,0.1-0.5,0.2-0.7c0.2-0.2,0.4-0.3,0.6-0.3h1.7
				c0.3,0,0.5,0.1,0.6,0.2c0.1,0.1,0.3,0.2,0.4,0.4l13,20v-19.6c0-0.3,0.1-0.5,0.3-0.7c0.2-0.2,0.4-0.3,0.6-0.3h1.7
				c0.3,0,0.5,0.1,0.7,0.3c0.2,0.2,0.3,0.4,0.3,0.7v25.3c0,0.3-0.1,0.5-0.3,0.7c-0.2,0.2-0.4,0.3-0.6,0.3h-1.7
				c-0.4,0-0.8-0.2-0.9-0.5l-13-19.8v19.5c0,0.3-0.1,0.5-0.3,0.6c-0.2,0.2-0.4,0.3-0.6,0.3h-1.8C273,196.5,272.8,196.4,272.7,196.2z
				"/>
			<path class="st1" d="M299.6,196.2c-0.2-0.2-0.2-0.4-0.2-0.6v-25.3c0-0.3,0.1-0.5,0.2-0.7c0.2-0.2,0.4-0.3,0.6-0.3h8.8
				c3.9,0,6.7,0.9,8.5,2.6c1.7,1.7,2.6,4.4,2.7,7.9c0,0.8,0,1.8,0,3s0,2.3,0,3.1c-0.1,2.5-0.4,4.5-1.2,6c-0.7,1.5-1.9,2.7-3.5,3.4
				c-1.6,0.8-3.7,1.1-6.3,1.1h-9C299.9,196.5,299.7,196.4,299.6,196.2z M308.9,193.3c1.8,0,3.3-0.3,4.3-0.8c1.1-0.5,1.8-1.3,2.3-2.4
				c0.5-1.1,0.7-2.5,0.8-4.4c0.1-1.6,0.1-2.5,0.1-2.9c0-0.4,0-1.4-0.1-2.9c-0.1-2.6-0.7-4.5-1.8-5.7s-3.1-1.8-5.8-1.8H303v20.8
				H308.9z"/>
			<path class="st1" d="M326.3,196.2c-0.2-0.2-0.2-0.4-0.2-0.6v-25.3c0-0.3,0.1-0.5,0.2-0.7c0.2-0.2,0.4-0.3,0.6-0.3h16
				c0.3,0,0.5,0.1,0.7,0.3c0.2,0.2,0.3,0.4,0.3,0.7v1.4c0,0.3-0.1,0.5-0.3,0.6s-0.4,0.2-0.7,0.2h-13.2v8.7H342
				c0.3,0,0.5,0.1,0.7,0.3c0.2,0.2,0.3,0.4,0.3,0.7v1.3c0,0.3-0.1,0.5-0.3,0.6c-0.2,0.2-0.4,0.3-0.7,0.3h-12.4v9h13.5
				c0.3,0,0.5,0.1,0.7,0.3s0.3,0.4,0.3,0.7v1.4c0,0.3-0.1,0.5-0.3,0.6c-0.2,0.2-0.4,0.3-0.7,0.3h-16.3
				C326.6,196.5,326.4,196.4,326.3,196.2z"/>
			<path class="st1" d="M349.7,196.2c-0.2-0.2-0.2-0.4-0.2-0.6v-25.3c0-0.3,0.1-0.5,0.2-0.7c0.2-0.2,0.4-0.3,0.6-0.3h9.5
				c2.9,0,5.3,0.7,6.9,2.1c1.7,1.4,2.5,3.4,2.5,6c0,2-0.5,3.6-1.5,4.9s-2.4,2.1-4.1,2.6l6,10.4c0.1,0.2,0.1,0.3,0.1,0.4
				c0,0.2-0.1,0.4-0.2,0.5s-0.3,0.2-0.5,0.2h-1.7c-0.4,0-0.7-0.1-0.9-0.3c-0.2-0.2-0.4-0.4-0.6-0.8l-5.7-9.9h-6.9v10.1
				c0,0.3-0.1,0.5-0.3,0.6s-0.4,0.3-0.7,0.3h-1.9C350.1,196.5,349.9,196.4,349.7,196.2z M359.7,182.3c3.9,0,5.9-1.6,5.9-4.9
				s-2-4.9-5.9-4.9h-6.5v9.9H359.7z"/>
			<path class="st1" d="M257.3,231.3c-0.2-0.2-0.2-0.4-0.2-0.6v-25.4c0-0.3,0.1-0.5,0.2-0.6c0.2-0.2,0.4-0.3,0.6-0.3h1.9
				c0.3,0,0.5,0.1,0.6,0.3c0.2,0.2,0.2,0.4,0.2,0.6v23h13c0.3,0,0.5,0.1,0.7,0.3c0.2,0.2,0.3,0.4,0.3,0.6v1.5c0,0.3-0.1,0.5-0.3,0.6
				c-0.2,0.2-0.4,0.3-0.7,0.3h-15.8C257.7,231.6,257.5,231.5,257.3,231.3z"/>
			<path class="st1" d="M279.1,231.3c-0.2-0.2-0.2-0.4-0.2-0.6v-25.3c0-0.3,0.1-0.5,0.2-0.7c0.2-0.2,0.4-0.3,0.6-0.3h16
				c0.3,0,0.5,0.1,0.7,0.3c0.2,0.2,0.3,0.4,0.3,0.7v1.4c0,0.3-0.1,0.5-0.3,0.6s-0.4,0.2-0.7,0.2h-13.2v8.7h12.4
				c0.3,0,0.5,0.1,0.7,0.3c0.2,0.2,0.3,0.4,0.3,0.7v1.3c0,0.3-0.1,0.5-0.3,0.6c-0.2,0.2-0.4,0.3-0.7,0.3h-12.4v9H296
				c0.3,0,0.5,0.1,0.7,0.3s0.3,0.4,0.3,0.7v1.4c0,0.3-0.1,0.5-0.3,0.6c-0.2,0.2-0.4,0.3-0.7,0.3h-16.3
				C279.5,231.6,279.3,231.5,279.1,231.3z"/>
			<path class="st1" d="M303.9,229.1c-1.8-1.9-2.8-4.4-2.9-7.7c0-0.7,0-1.8,0-3.4c0-1.6,0-2.8,0-3.5c0.1-3.3,1.1-5.8,2.9-7.7
				s4.4-2.8,7.9-2.8c2.3,0,4.3,0.4,5.9,1.2c1.6,0.8,2.8,1.9,3.6,3.2c0.8,1.3,1.3,2.7,1.3,4.2c0,0.2-0.1,0.4-0.3,0.6
				c-0.2,0.1-0.4,0.2-0.6,0.2h-1.9c-0.3,0-0.5-0.1-0.6-0.2s-0.3-0.3-0.3-0.7c-0.4-2-1.2-3.4-2.4-4.2s-2.7-1.2-4.7-1.2
				c-4.5,0-6.8,2.5-7,7.5c0,0.7,0,1.8,0,3.2s0,2.5,0,3.3c0.2,5,2.5,7.5,7,7.5c1.9,0,3.5-0.4,4.7-1.2s2-2.2,2.4-4.2
				c0.1-0.3,0.2-0.5,0.3-0.7c0.2-0.1,0.4-0.2,0.6-0.2h1.9c0.2,0,0.4,0.1,0.6,0.2c0.2,0.1,0.3,0.3,0.3,0.6c-0.1,1.5-0.5,2.9-1.3,4.2
				c-0.8,1.3-2,2.4-3.6,3.2c-1.6,0.8-3.6,1.2-5.9,1.2C308.3,231.9,305.7,231,303.9,229.1z"/>
			<path class="st1" d="M328.1,231.3c-0.2-0.2-0.2-0.4-0.2-0.6v-25.3c0-0.3,0.1-0.5,0.2-0.7c0.2-0.2,0.4-0.3,0.6-0.3h1.9
				c0.3,0,0.5,0.1,0.7,0.3c0.2,0.2,0.3,0.4,0.3,0.7v10.8H345v-10.8c0-0.3,0.1-0.5,0.3-0.7c0.2-0.2,0.4-0.3,0.6-0.3h1.9
				c0.3,0,0.5,0.1,0.7,0.3c0.2,0.2,0.3,0.4,0.3,0.7v25.3c0,0.3-0.1,0.5-0.3,0.6c-0.2,0.2-0.4,0.3-0.7,0.3h-1.9
				c-0.3,0-0.5-0.1-0.6-0.3c-0.2-0.2-0.3-0.4-0.3-0.6v-11.2h-13.5v11.2c0,0.3-0.1,0.5-0.3,0.6s-0.4,0.3-0.7,0.3h-1.9
				C328.5,231.6,328.3,231.5,328.1,231.3z"/>
			<path class="st1" d="M361.7,231.3c-0.2-0.2-0.3-0.4-0.3-0.6v-22.9H354c-0.3,0-0.5-0.1-0.6-0.3c-0.2-0.2-0.3-0.4-0.3-0.6v-1.5
				c0-0.3,0.1-0.5,0.3-0.7c0.2-0.2,0.4-0.3,0.6-0.3h18.6c0.3,0,0.5,0.1,0.7,0.3c0.2,0.2,0.2,0.4,0.2,0.7v1.5c0,0.3-0.1,0.5-0.3,0.6
				c-0.2,0.2-0.4,0.3-0.6,0.3h-7.5v22.9c0,0.3-0.1,0.5-0.3,0.6c-0.2,0.2-0.4,0.3-0.7,0.3h-1.9C362.1,231.6,361.9,231.5,361.7,231.3z
				"/>
			<path class="st1" d="M379.2,229.3c-1.8-1.8-2.8-4.4-2.9-8c0-0.8,0-1.9,0-3.3c0-1.4,0-2.5,0-3.3c0.1-3.5,1.1-6.2,3-8
				c1.9-1.8,4.5-2.7,7.7-2.7c3.2,0,5.8,0.9,7.7,2.7c1.9,1.8,2.9,4.5,3,8c0.1,1.5,0.1,2.6,0.1,3.3c0,0.6,0,1.7-0.1,3.3
				c-0.1,3.6-1.1,6.2-2.9,8s-4.4,2.7-7.8,2.7C383.7,231.9,381.1,231.1,379.2,229.3z M392,226.8c1.2-1.3,1.9-3.2,2-5.8
				c0.1-1.6,0.1-2.6,0.1-3.1c0-0.6,0-1.6-0.1-3.1c-0.1-2.6-0.8-4.5-2-5.8s-2.9-1.9-5-1.9c-2.1,0-3.7,0.6-5,1.9s-1.9,3.2-2,5.8
				c0,0.8,0,1.8,0,3.1c0,1.3,0,2.3,0,3.1c0.1,2.6,0.7,4.5,2,5.8c1.2,1.3,2.9,1.9,5,1.9C389.1,228.7,390.8,228.1,392,226.8z"/>
			<path class="st1" d="M403.8,231.3c-0.2-0.2-0.2-0.4-0.2-0.6v-25.4c0-0.3,0.1-0.5,0.2-0.6c0.2-0.2,0.4-0.3,0.6-0.3h1.9
				c0.3,0,0.5,0.1,0.7,0.2s0.2,0.4,0.2,0.7v25.4c0,0.3-0.1,0.5-0.3,0.6c-0.2,0.2-0.4,0.3-0.6,0.3h-1.9
				C404.1,231.6,403.9,231.5,403.8,231.3z"/>
			<path class="st1" d="M417.2,230.9c-1.6-0.7-2.8-1.6-3.6-2.7c-0.8-1.1-1.2-2.3-1.3-3.6c0-0.2,0.1-0.4,0.2-0.5
				c0.2-0.2,0.3-0.2,0.6-0.2h1.9c0.5,0,0.8,0.3,1,0.8c0.2,1.1,0.9,2,2,2.8c1.1,0.8,2.7,1.2,4.7,1.2c2.2,0,3.8-0.4,4.9-1.2
				s1.6-1.8,1.6-3.2c0-0.9-0.3-1.6-0.8-2.2c-0.5-0.6-1.3-1.1-2.4-1.5c-1-0.4-2.6-1-4.7-1.6c-2-0.6-3.6-1.2-4.8-1.8
				c-1.2-0.6-2.1-1.4-2.7-2.4c-0.6-0.9-0.9-2.1-0.9-3.6c0-1.4,0.4-2.6,1.1-3.7c0.8-1.1,1.8-2,3.3-2.6c1.4-0.6,3.1-1,5-1
				c2,0,3.7,0.4,5.2,1.1c1.4,0.7,2.5,1.6,3.3,2.7c0.8,1.1,1.2,2.2,1.2,3.2c0,0.2-0.1,0.4-0.2,0.6s-0.3,0.2-0.6,0.2h-1.9
				c-0.2,0-0.4-0.1-0.6-0.2c-0.2-0.1-0.3-0.3-0.4-0.6c-0.2-1.1-0.8-2-1.9-2.8c-1.1-0.7-2.4-1.1-4.1-1.1c-1.8,0-3.2,0.3-4.2,1
				s-1.6,1.7-1.6,3c0,0.9,0.2,1.6,0.7,2.2c0.5,0.6,1.2,1.1,2.2,1.5c1,0.4,2.5,0.9,4.4,1.5c2.2,0.6,3.9,1.2,5.2,1.9s2.2,1.4,2.8,2.3
				s0.9,2.1,0.9,3.6c0,2.4-0.9,4.3-2.8,5.7c-1.9,1.4-4.4,2-7.5,2C420.6,231.9,418.7,231.6,417.2,230.9z"/>
			<path class="st0" d="M263.2,266.4c-0.2-0.2-0.2-0.3-0.2-0.5l0.1-0.4l9.6-25.1c0.2-0.6,0.6-0.9,1.2-0.9h2.5c0.6,0,1,0.3,1.2,0.9
				l9.6,25.1l0.1,0.4c0,0.2-0.1,0.4-0.3,0.5c-0.2,0.2-0.4,0.2-0.6,0.2h-1.8c-0.3,0-0.5-0.1-0.6-0.2c-0.2-0.1-0.3-0.3-0.3-0.4
				l-2.2-5.6h-12.8l-2.1,5.6c-0.2,0.4-0.5,0.7-1,0.7h-1.9C263.5,266.6,263.3,266.5,263.2,266.4z M269.8,257.1h10.6l-5.3-13.9
				L269.8,257.1z"/>
			<path class="st0" d="M291.7,266.4c-0.2-0.2-0.2-0.4-0.2-0.6v-25.3c0-0.3,0.1-0.5,0.2-0.7c0.2-0.2,0.4-0.3,0.6-0.3h1.7
				c0.3,0,0.5,0.1,0.6,0.2c0.1,0.1,0.3,0.2,0.4,0.4l13,20v-19.6c0-0.3,0.1-0.5,0.3-0.7c0.2-0.2,0.4-0.3,0.6-0.3h1.7
				c0.3,0,0.5,0.1,0.7,0.3c0.2,0.2,0.3,0.4,0.3,0.7v25.3c0,0.3-0.1,0.5-0.3,0.7c-0.2,0.2-0.4,0.3-0.6,0.3H309
				c-0.4,0-0.8-0.2-0.9-0.5l-13-19.8v19.5c0,0.3-0.1,0.5-0.3,0.6c-0.2,0.2-0.4,0.3-0.6,0.3h-1.8
				C292.1,266.6,291.9,266.5,291.7,266.4z"/>
			<path class="st0" d="M318.6,266.4c-0.2-0.2-0.2-0.4-0.2-0.6v-25.3c0-0.3,0.1-0.5,0.2-0.7c0.2-0.2,0.4-0.3,0.6-0.3h8.8
				c3.9,0,6.7,0.9,8.5,2.6c1.7,1.7,2.6,4.4,2.7,7.9c0,0.8,0,1.8,0,3s0,2.3,0,3.1c-0.1,2.5-0.4,4.5-1.2,6c-0.7,1.5-1.9,2.7-3.5,3.4
				c-1.6,0.8-3.7,1.1-6.3,1.1h-9C319,266.6,318.8,266.5,318.6,266.4z M328,263.4c1.8,0,3.3-0.3,4.3-0.8c1.1-0.5,1.8-1.3,2.3-2.4
				c0.5-1.1,0.7-2.5,0.8-4.4c0.1-1.6,0.1-2.5,0.1-2.9c0-0.4,0-1.4-0.1-2.9c-0.1-2.6-0.7-4.5-1.8-5.7s-3.1-1.8-5.8-1.8h-5.8v20.8H328
				z"/>
			<path class="st0" d="M345.3,266.4c-0.2-0.2-0.2-0.4-0.2-0.6v-25.3c0-0.3,0.1-0.5,0.2-0.7c0.2-0.2,0.4-0.3,0.6-0.3h16
				c0.3,0,0.5,0.1,0.7,0.3c0.2,0.2,0.3,0.4,0.3,0.7v1.4c0,0.3-0.1,0.5-0.3,0.6s-0.4,0.2-0.7,0.2h-13.2v8.7h12.4
				c0.3,0,0.5,0.1,0.7,0.3c0.2,0.2,0.3,0.4,0.3,0.7v1.3c0,0.3-0.1,0.5-0.3,0.6c-0.2,0.2-0.4,0.3-0.7,0.3h-12.4v9h13.5
				c0.3,0,0.5,0.1,0.7,0.3s0.3,0.4,0.3,0.7v1.4c0,0.3-0.1,0.5-0.3,0.6c-0.2,0.2-0.4,0.3-0.7,0.3H346
				C345.7,266.6,345.5,266.5,345.3,266.4z"/>
			<path class="st0" d="M368.8,266.4c-0.2-0.2-0.2-0.4-0.2-0.6v-25.3c0-0.3,0.1-0.5,0.2-0.7c0.2-0.2,0.4-0.3,0.6-0.3h9.5
				c2.9,0,5.3,0.7,6.9,2.1c1.7,1.4,2.5,3.4,2.5,6c0,2-0.5,3.6-1.5,4.9s-2.4,2.1-4.1,2.6l6,10.4c0.1,0.2,0.1,0.3,0.1,0.4
				c0,0.2-0.1,0.4-0.2,0.5s-0.3,0.2-0.5,0.2h-1.7c-0.4,0-0.7-0.1-0.9-0.3c-0.2-0.2-0.4-0.4-0.6-0.8l-5.7-9.9h-6.9v10.1
				c0,0.3-0.1,0.5-0.3,0.6s-0.4,0.3-0.7,0.3h-1.9C369.2,266.6,369,266.5,368.8,266.4z M378.8,252.5c3.9,0,5.9-1.6,5.9-4.9
				s-2-4.9-5.9-4.9h-6.5v9.9H378.8z"/>
			<path class="st0" d="M276.4,301.4c-0.2-0.2-0.2-0.4-0.2-0.6v-25.4c0-0.3,0.1-0.5,0.2-0.6c0.2-0.2,0.4-0.3,0.6-0.3h1.9
				c0.3,0,0.5,0.1,0.6,0.3c0.2,0.2,0.2,0.4,0.2,0.6v23h13c0.3,0,0.5,0.1,0.7,0.3c0.2,0.2,0.3,0.4,0.3,0.6v1.5c0,0.3-0.1,0.5-0.3,0.6
				c-0.2,0.2-0.4,0.3-0.7,0.3H277C276.8,301.7,276.6,301.6,276.4,301.4z"/>
			<path class="st0" d="M298.2,301.4c-0.2-0.2-0.2-0.4-0.2-0.6v-25.3c0-0.3,0.1-0.5,0.2-0.7c0.2-0.2,0.4-0.3,0.6-0.3h16
				c0.3,0,0.5,0.1,0.7,0.3c0.2,0.2,0.3,0.4,0.3,0.7v1.4c0,0.3-0.1,0.5-0.3,0.6s-0.4,0.2-0.7,0.2h-13.2v8.7h12.4
				c0.3,0,0.5,0.1,0.7,0.3c0.2,0.2,0.3,0.4,0.3,0.7v1.3c0,0.3-0.1,0.5-0.3,0.6c-0.2,0.2-0.4,0.3-0.7,0.3h-12.4v9h13.5
				c0.3,0,0.5,0.1,0.7,0.3s0.3,0.4,0.3,0.7v1.4c0,0.3-0.1,0.5-0.3,0.6c-0.2,0.2-0.4,0.3-0.7,0.3h-16.3
				C298.6,301.7,298.3,301.6,298.2,301.4z"/>
			<path class="st0" d="M323,299.3c-1.8-1.9-2.8-4.4-2.9-7.7c0-0.7,0-1.8,0-3.4c0-1.6,0-2.8,0-3.5c0.1-3.3,1.1-5.8,2.9-7.7
				s4.4-2.8,7.9-2.8c2.3,0,4.3,0.4,5.9,1.2c1.6,0.8,2.8,1.9,3.6,3.2c0.8,1.3,1.3,2.7,1.3,4.2c0,0.2-0.1,0.4-0.3,0.6
				c-0.2,0.1-0.4,0.2-0.6,0.2h-1.9c-0.3,0-0.5-0.1-0.6-0.2s-0.3-0.3-0.3-0.7c-0.4-2-1.2-3.4-2.4-4.2s-2.7-1.2-4.7-1.2
				c-4.5,0-6.8,2.5-7,7.5c0,0.7,0,1.8,0,3.2s0,2.5,0,3.3c0.2,5,2.5,7.5,7,7.5c1.9,0,3.5-0.4,4.7-1.2s2-2.2,2.4-4.2
				c0.1-0.3,0.2-0.5,0.3-0.7c0.2-0.1,0.4-0.2,0.6-0.2h1.9c0.2,0,0.4,0.1,0.6,0.2c0.2,0.1,0.3,0.3,0.3,0.6c-0.1,1.5-0.5,2.9-1.3,4.2
				c-0.8,1.3-2,2.4-3.6,3.2c-1.6,0.8-3.6,1.2-5.9,1.2C327.4,302.1,324.8,301.1,323,299.3z"/>
			<path class="st0" d="M347.2,301.4c-0.2-0.2-0.2-0.4-0.2-0.6v-25.3c0-0.3,0.1-0.5,0.2-0.7c0.2-0.2,0.4-0.3,0.6-0.3h1.9
				c0.3,0,0.5,0.1,0.7,0.3c0.2,0.2,0.3,0.4,0.3,0.7v10.8h13.5v-10.8c0-0.3,0.1-0.5,0.3-0.7c0.2-0.2,0.4-0.3,0.6-0.3h1.9
				c0.3,0,0.5,0.1,0.7,0.3c0.2,0.2,0.3,0.4,0.3,0.7v25.3c0,0.3-0.1,0.5-0.3,0.6c-0.2,0.2-0.4,0.3-0.7,0.3H365
				c-0.3,0-0.5-0.1-0.6-0.3c-0.2-0.2-0.3-0.4-0.3-0.6v-11.2h-13.5v11.2c0,0.3-0.1,0.5-0.3,0.6s-0.4,0.3-0.7,0.3h-1.9
				C347.6,301.7,347.4,301.6,347.2,301.4z"/>
			<path class="st0" d="M380.8,301.4c-0.2-0.2-0.3-0.4-0.3-0.6v-22.9h-7.5c-0.3,0-0.5-0.1-0.6-0.3c-0.2-0.2-0.3-0.4-0.3-0.6v-1.5
				c0-0.3,0.1-0.5,0.3-0.7c0.2-0.2,0.4-0.3,0.6-0.3h18.6c0.3,0,0.5,0.1,0.7,0.3c0.2,0.2,0.2,0.4,0.2,0.7v1.5c0,0.3-0.1,0.5-0.3,0.6
				c-0.2,0.2-0.4,0.3-0.6,0.3h-7.5v22.9c0,0.3-0.1,0.5-0.3,0.6c-0.2,0.2-0.4,0.3-0.7,0.3h-1.9C381.2,301.7,381,301.6,380.8,301.4z"
				/>
			<path class="st0" d="M400,301.1c-1.6-0.7-2.8-1.6-3.6-2.7c-0.8-1.1-1.2-2.3-1.3-3.6c0-0.2,0.1-0.4,0.2-0.5
				c0.2-0.2,0.3-0.2,0.6-0.2h1.9c0.5,0,0.8,0.3,1,0.8c0.2,1.1,0.9,2,2,2.8c1.1,0.8,2.7,1.2,4.7,1.2c2.2,0,3.8-0.4,4.9-1.2
				s1.6-1.8,1.6-3.2c0-0.9-0.3-1.6-0.8-2.2c-0.5-0.6-1.3-1.1-2.4-1.5c-1-0.4-2.6-1-4.7-1.6c-2-0.6-3.6-1.2-4.8-1.8
				c-1.2-0.6-2.1-1.4-2.7-2.4c-0.6-0.9-0.9-2.1-0.9-3.6c0-1.4,0.4-2.6,1.1-3.7c0.8-1.1,1.8-2,3.3-2.6c1.4-0.6,3.1-1,5-1
				c2,0,3.7,0.4,5.2,1.1c1.4,0.7,2.5,1.6,3.3,2.7c0.8,1.1,1.2,2.2,1.2,3.2c0,0.2-0.1,0.4-0.2,0.6s-0.3,0.2-0.6,0.2h-1.9
				c-0.2,0-0.4-0.1-0.6-0.2c-0.2-0.1-0.3-0.3-0.4-0.6c-0.2-1.1-0.8-2-1.9-2.8c-1.1-0.7-2.4-1.1-4.1-1.1c-1.8,0-3.2,0.3-4.2,1
				s-1.6,1.7-1.6,3c0,0.9,0.2,1.6,0.7,2.2c0.5,0.6,1.2,1.1,2.2,1.5c1,0.4,2.5,0.9,4.4,1.5c2.2,0.6,3.9,1.2,5.2,1.9s2.2,1.4,2.8,2.3
				s0.9,2.1,0.9,3.6c0,2.4-0.9,4.3-2.8,5.7c-1.9,1.4-4.4,2-7.5,2C403.4,302.1,401.5,301.7,400,301.1z"/>
			<path class="st0" d="M421.1,301.4c-0.2-0.2-0.2-0.4-0.2-0.6v-25.3c0-0.3,0.1-0.5,0.2-0.7c0.2-0.2,0.4-0.3,0.6-0.3h16
				c0.3,0,0.5,0.1,0.7,0.3c0.2,0.2,0.3,0.4,0.3,0.7v1.4c0,0.3-0.1,0.5-0.3,0.6s-0.4,0.2-0.7,0.2h-13.2v8.7h12.4
				c0.3,0,0.5,0.1,0.7,0.3c0.2,0.2,0.3,0.4,0.3,0.7v1.3c0,0.3-0.1,0.5-0.3,0.6c-0.2,0.2-0.4,0.3-0.7,0.3h-12.4v9H438
				c0.3,0,0.5,0.1,0.7,0.3s0.3,0.4,0.3,0.7v1.4c0,0.3-0.1,0.5-0.3,0.6c-0.2,0.2-0.4,0.3-0.7,0.3h-16.3
				C421.5,301.7,421.3,301.6,421.1,301.4z"/>
			<path class="st1" d="M286,336.5c-0.2-0.2-0.2-0.4-0.2-0.6v-25.3c0-0.3,0.1-0.5,0.2-0.7c0.2-0.2,0.4-0.3,0.6-0.3h1.9
				c0.3,0,0.5,0.1,0.7,0.3c0.2,0.2,0.3,0.4,0.3,0.7v10.8h13.5v-10.8c0-0.3,0.1-0.5,0.3-0.7c0.2-0.2,0.4-0.3,0.6-0.3h1.9
				c0.3,0,0.5,0.1,0.7,0.3c0.2,0.2,0.3,0.4,0.3,0.7v25.3c0,0.3-0.1,0.5-0.3,0.6c-0.2,0.2-0.4,0.3-0.7,0.3h-1.9
				c-0.3,0-0.5-0.1-0.6-0.3c-0.2-0.2-0.3-0.4-0.3-0.6v-11.2h-13.5v11.2c0,0.3-0.1,0.5-0.3,0.6s-0.4,0.3-0.7,0.3h-1.9
				C286.3,336.8,286.1,336.7,286,336.5z"/>
			<path class="st1" d="M311,336.5c-0.2-0.2-0.2-0.3-0.2-0.5l0.1-0.4l9.6-25.1c0.2-0.6,0.6-0.9,1.2-0.9h2.5c0.6,0,1,0.3,1.2,0.9
				l9.6,25.1l0.1,0.4c0,0.2-0.1,0.4-0.3,0.5c-0.2,0.2-0.4,0.2-0.6,0.2h-1.8c-0.3,0-0.5-0.1-0.6-0.2c-0.2-0.1-0.3-0.3-0.3-0.4
				l-2.2-5.6h-12.8l-2.1,5.6c-0.2,0.4-0.5,0.7-1,0.7h-1.9C311.3,336.8,311.1,336.7,311,336.5z M317.6,327.3h10.6l-5.3-13.9
				L317.6,327.3z"/>
			<path class="st1" d="M336.9,336.5c-0.2-0.2-0.2-0.3-0.2-0.5l0.1-0.4l9.6-25.1c0.2-0.6,0.6-0.9,1.2-0.9h2.5c0.6,0,1,0.3,1.2,0.9
				l9.6,25.1l0.1,0.4c0,0.2-0.1,0.4-0.3,0.5c-0.2,0.2-0.4,0.2-0.6,0.2h-1.8c-0.3,0-0.5-0.1-0.6-0.2c-0.2-0.1-0.3-0.3-0.3-0.4
				l-2.2-5.6h-12.8l-2.1,5.6c-0.2,0.4-0.5,0.7-1,0.7h-1.9C337.2,336.8,337,336.7,336.9,336.5z M343.5,327.3h10.6l-5.3-13.9
				L343.5,327.3z"/>
			<path class="st1" d="M365.5,336.5c-0.2-0.2-0.2-0.4-0.2-0.6v-25.3c0-0.3,0.1-0.5,0.2-0.7c0.2-0.2,0.4-0.3,0.6-0.3h9.5
				c2.9,0,5.3,0.7,6.9,2.1c1.7,1.4,2.5,3.4,2.5,6c0,2-0.5,3.6-1.5,4.9s-2.4,2.1-4.1,2.6l6,10.4c0.1,0.2,0.1,0.3,0.1,0.4
				c0,0.2-0.1,0.4-0.2,0.5s-0.3,0.2-0.5,0.2H383c-0.4,0-0.7-0.1-0.9-0.3s-0.4-0.4-0.6-0.8l-5.7-9.9h-6.9v10.1c0,0.3-0.1,0.5-0.3,0.6
				s-0.4,0.3-0.7,0.3h-1.9C365.8,336.8,365.6,336.7,365.5,336.5z M375.4,322.6c3.9,0,5.9-1.6,5.9-4.9s-2-4.9-5.9-4.9h-6.5v9.9H375.4
				z"/>
			<path class="st1" d="M390.8,336.5c-0.2-0.2-0.2-0.4-0.2-0.6v-25.3c0-0.3,0.1-0.5,0.2-0.7c0.2-0.2,0.4-0.3,0.6-0.3h8.8
				c3.9,0,6.7,0.9,8.5,2.6c1.7,1.7,2.6,4.4,2.7,7.9c0,0.8,0,1.8,0,3s0,2.3,0,3.1c-0.1,2.5-0.4,4.5-1.2,6c-0.7,1.5-1.9,2.7-3.5,3.4
				c-1.6,0.8-3.7,1.1-6.3,1.1h-9C391.2,336.8,391,336.7,390.8,336.5z M400.2,333.5c1.8,0,3.3-0.3,4.3-0.8c1.1-0.5,1.8-1.3,2.3-2.4
				c0.5-1.1,0.7-2.5,0.8-4.4c0.1-1.6,0.1-2.5,0.1-2.9c0-0.4,0-1.4-0.1-2.9c-0.1-2.6-0.7-4.5-1.8-5.7s-3.1-1.8-5.8-1.8h-5.8v20.8
				H400.2z"/>
		</g>
	</g>
	<g>
		<polygon class="st2" points="149.5,220.5 149.5,220.5 149.5,220.5 149.4,220.2 		"/>
		<path class="st2" d="M164.9,155.8c-0.2-0.8-0.5-1.5-0.8-2.2c0.1,0.1,0.1,0.2,0.2,0.4C164.5,154.6,164.7,155.2,164.9,155.8z"/>
		<path class="st2" d="M165,177.8c-0.1,0.4-0.2,0.8-0.4,1.1l-14.9,41h0l14.9-41.1C164.8,178.6,164.9,178.2,165,177.8z"/>
		<path class="st1" d="M166.1,160.2c-0.1-0.8-0.3-1.5-0.5-2.2c0,0,0,0,0,0c-0.1-0.4-0.2-0.7-0.3-1.1c0,0,0,0,0,0
			c-0.1-0.4-0.2-0.7-0.3-1.1c-0.2-0.6-0.4-1.2-0.7-1.8c-0.1-0.1-0.1-0.2-0.2-0.4c-0.2-0.5-0.4-1.1-0.7-1.6c0-0.1-0.1-0.1-0.1-0.2
			c-0.1-0.3-0.3-0.6-0.5-0.9c-0.1-0.2-0.2-0.5-0.4-0.7c-0.9-1.6-1.9-3.2-3-4.6c-0.2-0.3-0.4-0.6-0.7-0.8c-0.2-0.3-0.4-0.5-0.7-0.8
			c-0.7-0.8-1.4-1.6-2.2-2.3c-0.3-0.3-0.6-0.5-0.8-0.8c-1.7-1.5-3.6-2.9-5.6-4.1l0,0.1l0-0.1c-1.8-1.1-3.8-2-5.9-2.8
			c-3.9-1.4-8-2.1-12-2.1c-14.4,0-28,8.9-33.2,23.2L45.7,300c-6.6,18.2,2.8,38.5,21,45.1c3.9,1.4,8,2.1,12,2.1
			c14.4,0,28-8.9,33.1-23.1l12.5-34.3c-15.8-3.4-27.8-17.6-27.8-34.4c0-19.4,15.8-35.2,35.2-35.2h17.7v0l0,0l0.1,0.3l0,0l0.1-0.2
			l0.1-0.2l0,0l14.9-41.1c0.1-0.4,0.3-0.7,0.4-1.1c0.4-1.1,0.7-2.2,0.9-3.3C167,169.7,167,164.8,166.1,160.2z"/>
		<polygon class="st3" points="149.7,220 149.7,220 149.6,220.2 		"/>
		<path class="st3" d="M255.5,312c0,14.4-8.9,28-23.1,33.2c-18.2,6.6-38.5-2.9-45.1-21L175,290.6l33.2-27.8
			c14.9-12.4,16.8-34.7,4.4-49.6c-12.4-14.9-34.7-16.8-49.6-4.4L149.7,220h0l14.9-41c0.5-1.5,1-3,1.3-4.5c1.1-4.8,1.1-9.6,0.1-14.3
			c-0.1-0.7-0.3-1.5-0.5-2.2c-0.1-0.4-0.2-0.7-0.3-1.1v0c-0.1-0.4-0.2-0.7-0.3-1.1c0,0,0,0,0,0c-0.2-0.6-0.4-1.2-0.7-1.8
			c0-0.1-0.1-0.3-0.2-0.4c-0.2-0.5-0.5-1.1-0.7-1.6c0-0.1-0.1-0.1-0.1-0.2c-1.8-3.8-4.3-7.3-7.4-10.3c-0.3-0.3-0.6-0.5-0.8-0.8
			c-1.7-1.5-3.6-2.9-5.6-4.1c0,0,0,0,0,0c1.8-1.1,3.8-2,5.9-2.8c18.2-6.6,38.5,2.9,45.1,21l23.8,65.3l24.6,67.7l4.4,12.1
			C254.8,304,255.5,308,255.5,312z"/>
		<path class="st1" d="M155.9,141.6C156,141.6,156,141.6,155.9,141.6c-0.2-0.2-0.5-0.5-0.8-0.8C155.4,141,155.7,141.3,155.9,141.6z"
			/>
		<path class="st1" d="M157,142.7c-0.3-0.4-0.7-0.7-1-1C156.4,142,156.7,142.3,157,142.7z"/>
		<path class="st1" d="M158.1,143.9c-0.4-0.4-0.7-0.8-1.1-1.2C157.4,143.1,157.8,143.5,158.1,143.9z"/>
		<g>
			<g>
				<path class="st4" d="M149.7,220l-0.2,0.2h0l0.1,0.3l0-0.1l0.1-0.2L149.7,220L149.7,220z"/>
			</g>
		</g>
		<g>
			<path class="st4" d="M208.2,262.8L175,290.6h-43.3c-2.5,0-5-0.3-7.4-0.8c-15.8-3.4-27.8-17.6-27.8-34.4
				c0-19.4,15.8-35.2,35.2-35.2h17.7l0.1,0.3l0-0.1l0.1-0.2l0.1-0.2h0l13.3-11.2c14.8-12.4,37.2-10.4,49.6,4.4
				C225,228.1,223.1,250.4,208.2,262.8z"/>
		</g>
	</g>
</g>
<text transform="matrix(0.343 -0.9393 0.9393 0.343 61.5812 301.6853)" class="st5 st6 st7">1907</text>
</svg>
